<svg width="25" height="24" viewBox="0 0 25 24" fill="none" xmlns="http://www.w3.org/2000/svg">
  <g clip-path="url(#clip0_1159_15556)">
    <path fill-rule="evenodd" clip-rule="evenodd" d="M21.7466 12.3916C21.7474 11.7621 21.6916 11.1337 21.5796 10.5141H12.9314V14.0652H17.8736C17.7716 14.6273 17.5565 15.1629 17.2413 15.6394C16.9261 16.1159 16.5174 16.5233 16.04 16.8371V19.1417H19.0073C19.9113 18.2731 20.6223 17.2239 21.0941 16.0624C21.5659 14.901 21.7879 13.6532 21.7458 12.4003L21.7466 12.3916Z" fill="#4285F4"/>
    <path fill-rule="evenodd" clip-rule="evenodd" d="M12.9313 21.3653C15.1668 21.4269 17.3411 20.6307 19.0081 19.1399L16.0407 16.8371C15.3307 17.2924 14.5261 17.5796 13.6883 17.6768C12.8504 17.774 12.0015 17.6786 11.2061 17.398C10.4106 17.1173 9.68981 16.6588 9.09846 16.0574C8.5071 15.456 8.06086 14.7274 7.79371 13.9274H4.72217V16.306C5.48653 17.8278 6.65911 19.1069 8.10887 20.0004C9.55862 20.8939 11.2283 21.3665 12.9313 21.3653Z" fill="#34A853"/>
    <path fill-rule="evenodd" clip-rule="evenodd" d="M7.79542 13.9283C7.4111 12.797 7.4111 11.5705 7.79542 10.4392V8.06065H4.72729C4.08513 9.34037 3.75073 10.7524 3.75073 12.1842C3.75073 13.616 4.08513 15.0279 4.72729 16.3077L7.79542 13.9283Z" fill="#FBBC05"/>
    <path fill-rule="evenodd" clip-rule="evenodd" d="M12.9313 6.65232C14.2371 6.63192 15.4984 7.12676 16.4419 8.02968L19.0744 5.39544C17.4131 3.83334 15.2115 2.97506 12.9313 3.00054C11.2289 3 9.55995 3.47285 8.11086 4.36629C6.66178 5.25973 5.48968 6.53857 4.72559 8.05984L7.79372 10.4384C8.14579 9.34869 8.83098 8.39698 9.75272 7.71741C10.6745 7.03785 11.7862 6.66469 12.9313 6.65059V6.65232Z" fill="#EA4335"/>
  </g>
  <defs>
    <clipPath id="clip0_1159_15556">
      <rect width="24" height="24" fill="white" transform="translate(0.750732)"/>
    </clipPath>
  </defs>
</svg>
