<?xml version="1.0" encoding="utf-8"?>
<!-- Generator: Adobe Illustrator 28.1.0, SVG Export Plug-In . SVG Version: 6.00 Build 0)  -->
<svg version="1.1" id="Layer_1" xmlns="http://www.w3.org/2000/svg" xmlns:xlink="http://www.w3.org/1999/xlink" x="0px" y="0px"
	 viewBox="0 0 16 16" style="enable-background:new 0 0 16 16;" xml:space="preserve">
<style type="text/css">
	.st0{fill:#1A1A1A;}
	.st1{fill:#FFFFFF;}
</style>
<rect class="st0" width="16" height="16"/>
<g>
	<g>
		<path class="st1" d="M15.6,4.5c-0.4-0.4-1-0.4-1.4,0c-0.1,0.1-0.1,0.1-0.1,0.2C14,4.9,13.8,5,13.6,5l-0.1,0
			c-0.2,0-0.4-0.1-0.5-0.3c0-0.1-0.1-0.1-0.1-0.2c-0.1-0.1-0.1-0.1-0.2-0.1c-0.2-0.1-0.3-0.3-0.3-0.5l0-0.1c0-0.2,0.1-0.4,0.3-0.5
			c0.1,0,0.1-0.1,0.2-0.1c0.4-0.4,0.4-1,0-1.4c-0.4-0.4-1-0.4-1.4,0c-0.1,0.1-0.1,0.1-0.1,0.2c-0.1,0.2-0.3,0.3-0.5,0.3h-0.1
			c-0.2,0-0.4-0.1-0.5-0.3c0-0.1-0.1-0.1-0.1-0.2C9.9,1.6,9.7,1.5,9.5,1.5c0,0-0.1,0-0.1,0c-0.2,0-0.5,0.1-0.7,0.3
			C8.6,1.8,8.6,1.9,8.5,2C8.4,2.1,8.2,2.2,8.1,2.2H7.9c-0.2,0-0.4-0.1-0.5-0.3c0-0.1-0.1-0.1-0.1-0.2C7.1,1.5,6.8,1.4,6.5,1.5
			c-0.2,0-0.4,0.1-0.6,0.3C5.9,1.8,5.8,1.8,5.8,1.9C5.7,2.1,5.5,2.2,5.3,2.2H5.1C5,2.2,4.8,2.1,4.7,2c0-0.1-0.1-0.2-0.2-0.3
			C4.3,1.5,4.1,1.5,3.8,1.5c-0.3,0-0.5,0.1-0.7,0.3C3,1.8,3,1.9,2.9,2C2.8,2.1,2.7,2.2,2.5,2.2H2.4C2.2,2.2,2,2.1,1.9,1.9
			c0-0.1-0.1-0.1-0.1-0.2c-0.4-0.4-1-0.4-1.4,0C0,2.1,0,2.7,0.4,3.1c0.4,0.4,1,0.4,1.4,0C1.8,3.1,1.8,3,1.9,2.9
			C2,2.8,2.2,2.7,2.4,2.7l0.1,0c0.2,0,0.3,0.1,0.4,0.2C3,2.9,3,3,3.1,3.1c0.1,0.1,0.2,0.1,0.3,0.2c0.1,0.1,0.2,0.3,0.2,0.5l0,0.1
			c0,0.2-0.1,0.4-0.3,0.5c-0.1,0-0.1,0.1-0.2,0.1c-0.4,0.4-0.4,1,0,1.4c0.4,0.4,1,0.4,1.4,0c0.1-0.1,0.1-0.1,0.1-0.2
			c0.1-0.2,0.3-0.3,0.5-0.3l0.1,0c0.2,0,0.3,0.1,0.4,0.2c0,0,0,0.1,0.1,0.1c0,0.1,0.1,0.1,0.1,0.2C6,5.9,6,6,6.1,6
			c0.2,0.1,0.3,0.3,0.3,0.5v0.1c0,0.2-0.1,0.4-0.3,0.5C6,7.2,6,7.3,5.9,7.3C5.7,7.5,5.6,7.8,5.6,8.1c0,0.2,0.1,0.4,0.3,0.6
			C6,8.7,6,8.8,6.1,8.8c0.2,0.1,0.3,0.3,0.3,0.5v0.1c0,0.2-0.1,0.4-0.3,0.5C6,10,6,10.1,5.9,10.1c-0.2,0.2-0.3,0.5-0.3,0.8
			c0,0.2,0.1,0.4,0.3,0.6C6,11.5,6,11.6,6.1,11.6c0.2,0.1,0.3,0.3,0.3,0.5v0.1c0,0.2-0.1,0.4-0.3,0.5c-0.1,0-0.1,0.1-0.2,0.1
			c-0.4,0.4-0.4,1,0,1.4c0.4,0.4,1,0.4,1.4,0c0.4-0.4,0.4-1,0-1.4c-0.1-0.1-0.1-0.1-0.2-0.1c-0.2-0.1-0.3-0.3-0.3-0.5l0-0.1
			c0-0.2,0.1-0.4,0.3-0.5c0.1,0,0.1-0.1,0.2-0.1c0.1-0.1,0.1-0.1,0.1-0.2C7.5,11.1,7.7,11,7.9,11L8,11c0.2,0,0.4,0.1,0.5,0.3
			c0,0.1,0.1,0.1,0.1,0.2c0.4,0.4,1,0.4,1.4,0c0.4-0.4,0.4-1,0-1.4C10,10.1,10,10,9.9,10C9.7,9.9,9.6,9.7,9.6,9.5l0-0.1
			c0-0.2,0.1-0.4,0.3-0.5c0.1,0,0.1-0.1,0.2-0.1c0.2-0.2,0.3-0.4,0.3-0.7c0-0.2-0.1-0.5-0.3-0.7C10,7.3,10,7.2,9.9,7.2
			C9.7,7.1,9.6,6.9,9.6,6.7l0-0.1c0-0.2,0.1-0.4,0.3-0.5C10,6,10,5.9,10.1,5.9c0.1-0.1,0.1-0.1,0.1-0.2c0.1-0.2,0.3-0.3,0.5-0.3
			l0.1,0c0.2,0,0.4,0.1,0.5,0.3c0,0.1,0.1,0.1,0.1,0.2c0.2,0.2,0.4,0.3,0.7,0.3c0.2,0,0.5-0.1,0.7-0.3C12.9,5.8,13,5.8,13,5.7
			c0.1-0.2,0.3-0.3,0.5-0.3l0.1,0c0.2,0,0.4,0.1,0.5,0.3c0,0.1,0.1,0.1,0.1,0.2c0.4,0.4,1,0.4,1.4,0C16,5.5,16,4.9,15.6,4.5z
			 M6.4,3.9c0,0.2-0.1,0.4-0.3,0.5C6,4.4,6,4.5,5.9,4.5C5.9,4.6,5.8,4.6,5.8,4.7l0,0c0,0,0,0,0,0c0,0,0,0,0,0c0,0-0.1,0.1-0.2,0.2
			C5.5,4.9,5.4,5,5.3,5L5.2,5C4.9,5,4.8,4.9,4.6,4.7c0-0.1-0.1-0.1-0.1-0.2C4.5,4.5,4.4,4.4,4.3,4.4C4.2,4.3,4.1,4.1,4.1,3.9l0-0.1
			c0-0.2,0.1-0.4,0.3-0.5c0.1,0,0.1-0.1,0.2-0.1C4.6,3,4.7,2.9,4.7,2.8C4.8,2.7,5,2.7,5.1,2.7l0.1,0c0.2,0,0.4,0.1,0.5,0.3
			c0,0.1,0.1,0.1,0.1,0.2C6,3.2,6,3.2,6.1,3.2c0.2,0.1,0.3,0.3,0.3,0.5L6.4,3.9z M8.9,10c-0.1,0-0.1,0.1-0.2,0.1
			c-0.1,0.1-0.1,0.1-0.1,0.2c-0.1,0.2-0.3,0.3-0.5,0.3l-0.1,0c-0.2,0-0.4-0.1-0.5-0.3c0-0.1-0.1-0.1-0.1-0.2C7.2,10.1,7.2,10,7.1,10
			C6.9,9.9,6.8,9.7,6.8,9.5l0-0.1c0-0.2,0.1-0.4,0.3-0.5c0.1,0,0.1-0.1,0.2-0.1c0.1-0.1,0.1-0.1,0.1-0.2c0.1-0.2,0.3-0.3,0.5-0.3
			l0.1,0c0.2,0,0.4,0.1,0.5,0.3c0,0.1,0.1,0.1,0.1,0.2c0.1,0.1,0.1,0.1,0.2,0.1C9,8.9,9.1,9.1,9.1,9.3l0,0.1C9.1,9.7,9,9.9,8.9,10z
			 M8.9,7.2c-0.1,0-0.1,0.1-0.2,0.1C8.6,7.4,8.6,7.4,8.6,7.5C8.4,7.7,8.3,7.8,8,7.8l-0.1,0c-0.2,0-0.4-0.1-0.5-0.3
			c0-0.1-0.1-0.1-0.1-0.2C7.2,7.3,7.2,7.2,7.1,7.2C6.9,7.1,6.8,6.9,6.8,6.7l0-0.1c0-0.2,0.1-0.4,0.3-0.5c0.1,0,0.1-0.1,0.2-0.1
			c0,0,0,0,0.1-0.1c0,0,0.1-0.1,0.1-0.1c0.1-0.2,0.3-0.3,0.5-0.3l0.1,0c0.2,0,0.4,0.1,0.5,0.3c0,0.1,0.1,0.1,0.1,0.2
			C8.7,5.9,8.8,6,8.9,6C9,6.1,9.1,6.3,9.1,6.5l0,0.1C9.1,6.9,9,7.1,8.9,7.2z M9,4.2c0,0.1-0.1,0.1-0.2,0.2c-0.1,0-0.1,0.1-0.2,0.1
			C8.6,4.6,8.6,4.6,8.6,4.7C8.5,4.9,8.3,5,8.1,5L7.9,5c-0.1,0-0.3,0-0.4-0.1c0,0-0.1-0.1-0.1-0.1c0,0,0,0,0,0c0,0,0,0,0,0
			c0,0,0,0,0,0c0-0.1-0.1-0.1-0.1-0.2C7.2,4.4,7.1,4.4,7,4.3C6.9,4.2,6.8,4.1,6.8,3.9l0-0.1c0-0.2,0.1-0.4,0.3-0.5
			c0.1,0,0.1-0.1,0.2-0.1C7.3,3.1,7.4,3,7.4,2.9c0.1-0.2,0.3-0.3,0.5-0.3l0.1,0c0.2,0,0.4,0.1,0.5,0.2C8.6,3,8.6,3,8.7,3.1
			c0.1,0.1,0.1,0.1,0.2,0.1C9,3.4,9.1,3.5,9.1,3.8l0,0.1C9.1,4,9.1,4.1,9,4.2z M11.9,3.9c0,0.2-0.1,0.4-0.3,0.5
			c-0.1,0-0.1,0.1-0.2,0.1c-0.1,0.1-0.1,0.1-0.1,0.2C11.2,4.9,11.1,5,10.8,5l-0.1,0c-0.2,0-0.4-0.1-0.5-0.3c0-0.1-0.1-0.1-0.1-0.2
			C10,4.5,10,4.4,9.9,4.4C9.7,4.3,9.6,4.1,9.6,3.9l0-0.1c0-0.2,0.1-0.4,0.3-0.5c0.1,0,0.1-0.1,0.2-0.1C10.1,3,10.2,3,10.2,2.9
			c0.1-0.2,0.3-0.3,0.5-0.3l0.1,0c0.2,0,0.4,0.1,0.5,0.3c0,0.1,0.1,0.1,0.1,0.2c0.1,0.1,0.1,0.1,0.2,0.1c0.2,0.1,0.3,0.3,0.3,0.5
			L11.9,3.9z"/>
		<circle class="st1" cx="0.9" cy="5.2" r="0.5"/>
		<circle class="st1" cx="9.3" cy="13.6" r="0.5"/>
		<circle class="st1" cx="14.9" cy="2.3" r="0.5"/>
	</g>
</g>
</svg>
